<?xml version="1.0" standalone="no"?>
<!DOCTYPE svg PUBLIC "-//W3C//DTD SVG 20010904//EN"
 "http://www.w3.org/TR/2001/REC-SVG-20010904/DTD/svg10.dtd">
<svg version="1.0" xmlns="http://www.w3.org/2000/svg"
 width="1080.000000pt" height="545.000000pt" viewBox="0 0 1080.000000 545.000000"
 preserveAspectRatio="xMidYMid meet">

<g transform="translate(0.000000,545.000000) scale(0.100000,-0.100000)"
fill="#000000" stroke="none">
<path d="M3300 4660 l0 -70 35 0 35 0 0 70 0 70 -35 0 -35 0 0 -70z"/>
<path d="M7660 4660 l0 -70 30 0 30 0 0 70 0 70 -30 0 -30 0 0 -70z"/>
<path d="M2171 4628 c-6 -17 -10 -32 -9 -34 4 -3 75 -6 105 -5 22 1 22 2 6 36
-15 31 -21 35 -54 35 -33 0 -38 -4 -48 -32z"/>
<path d="M6325 4184 c-146 -32 -297 -116 -391 -215 -72 -77 -57 -85 20 -12 87
84 181 141 291 180 76 26 89 28 245 28 153 -1 171 -3 250 -29 120 -40 247
-107 328 -175 41 -35 83 -62 103 -66 25 -4 30 -3 19 4 -8 6 -11 11 -6 11 18 0
-59 72 -126 116 -89 60 -215 118 -313 144 -107 29 -319 36 -420 14z"/>
<path d="M1759 3682 c-18 -2 -31 -14 -42 -38 l-17 -34 39 0 c34 0 40 4 51 31
15 35 6 46 -31 41z"/>
<path d="M3930 3655 c0 -33 2 -35 35 -35 33 0 35 2 35 35 0 33 -2 35 -35 35
-33 0 -35 -2 -35 -35z"/>
<path d="M5806 3674 c-9 -24 0 -32 56 -49 100 -29 253 -12 310 35 l23 19 -39
1 c-22 0 -66 -5 -98 -12 -54 -11 -156 -3 -229 18 -9 3 -19 -3 -23 -12z"/>
<path d="M7121 3675 c14 -14 119 -59 119 -51 0 1 -5 17 -11 35 -11 30 -13 31
-67 31 -50 0 -55 -2 -41 -15z"/>
<path d="M7407 3683 c-24 -4 -26 -8 -21 -31 4 -15 8 -29 11 -31 6 -8 108 29
133 49 l25 20 -60 -2 c-33 0 -72 -3 -88 -5z"/>
<path d="M7660 3655 c0 -32 2 -35 30 -35 28 0 30 3 30 35 0 32 -2 35 -30 35
-28 0 -30 -3 -30 -35z"/>
<path d="M8578 3683 c-24 -4 -28 -9 -28 -39 0 -31 2 -34 30 -34 28 0 30 2 30
40 0 22 -1 39 -2 39 -2 -1 -15 -4 -30 -6z"/>
<path d="M2640 3676 c0 -1 5 -17 11 -35 10 -28 15 -31 50 -31 l39 0 -17 35
c-14 30 -22 35 -50 35 -18 0 -33 -2 -33 -4z"/>
<path d="M3300 3650 c0 -28 3 -30 35 -30 32 0 35 2 35 30 0 28 -3 30 -35 30
-32 0 -35 -2 -35 -30z"/>
<path d="M4489 3654 l-20 -21 45 -12 c98 -24 232 -7 301 39 l30 20 -168 -3
c-156 -2 -169 -3 -188 -23z"/>
<path d="M5250 3645 c0 -33 2 -35 35 -35 33 0 35 2 35 35 0 33 -2 35 -35 35
-33 0 -35 -2 -35 -35z"/>
<path d="M6270 3645 c0 -32 2 -35 30 -35 28 0 30 3 30 35 0 32 -2 35 -30 35
-28 0 -30 -3 -30 -35z"/>
<path d="M8070 3661 c80 -67 305 -67 382 0 l23 20 -70 -7 c-90 -9 -169 -9
-275 0 l-85 8 25 -21z"/>
<path d="M3431 1871 c-29 -8 -26 -3 -105 -181 -164 -374 -344 -685 -492 -848
-65 -72 -98 -92 -152 -92 -81 0 -122 77 -159 296 -22 131 -22 490 -1 697 8 70
11 127 7 127 -16 0 -34 -283 -34 -540 0 -226 3 -290 18 -360 45 -217 139 -297
258 -222 96 62 252 257 402 506 72 118 307 582 307 605 0 13 -22 18 -49 12z"/>
<path d="M5607 1869 c-9 -6 -21 -8 -26 -5 -4 3 -41 -33 -81 -79 -164 -189
-294 -271 -344 -216 -42 46 -39 129 9 253 17 43 12 49 -41 44 -38 -3 -39 -5
-51 -52 -17 -75 -16 -180 4 -221 19 -42 66 -73 108 -73 74 1 188 86 311 233
43 51 81 93 85 95 4 2 3 -14 -3 -35 -7 -21 -12 -85 -12 -143 -1 -89 2 -110 19
-140 27 -45 67 -50 133 -19 68 32 388 359 351 359 -7 0 -70 -58 -140 -129
-139 -140 -237 -214 -278 -209 -23 3 -26 8 -29 48 -2 30 6 72 23 120 54 154
55 160 37 162 -32 2 -37 4 -47 10 -6 3 -18 2 -28 -3z"/>
<path d="M6141 1870 c-20 -12 -9 -142 19 -215 39 -104 129 -175 221 -175 84 0
211 64 308 156 88 82 190 223 171 234 -16 10 -35 -9 -127 -128 -92 -118 -199
-193 -319 -223 -93 -24 -182 42 -204 148 -12 56 -9 158 6 198 6 16 5 18 -7 9
-16 -11 -29 -12 -44 -2 -6 4 -17 3 -24 -2z"/>
<path d="M7150 1869 c0 -5 -6 -9 -14 -9 -17 0 -36 -91 -36 -173 0 -71 22 -122
64 -148 42 -26 83 -24 145 8 57 28 197 160 266 251 21 29 42 52 46 52 4 0 2
-17 -4 -37 -6 -21 -11 -85 -11 -143 -1 -89 2 -110 20 -140 19 -32 24 -35 66
-34 64 0 126 44 248 171 124 130 175 191 166 201 -4 3 -65 -52 -135 -124 -138
-141 -238 -217 -280 -212 -23 3 -26 8 -29 45 -3 42 5 76 52 211 29 84 30 86
16 77 -6 -4 -18 -1 -27 7 -14 11 -16 11 -8 -2 7 -12 6 -13 -6 -3 -12 10 -18
10 -27 1 -9 -9 -12 -9 -12 -1 0 24 -57 -19 -115 -87 -115 -136 -238 -229 -301
-230 -27 0 -52 29 -65 73 -10 38 4 116 36 200 16 40 16 39 -32 50 -13 3 -23 1
-23 -4z"/>
<path d="M3898 1863 c-24 -4 -27 -10 -35 -61 -4 -31 -8 -101 -8 -154 0 -82 3
-101 21 -125 63 -84 215 -3 454 243 l105 108 -110 -104 c-213 -200 -356 -286
-410 -246 -33 24 -27 147 13 259 33 94 35 90 -30 80z"/>
<path d="M4485 1785 c-45 -84 -50 -103 -23 -92 15 5 84 164 75 173 -2 3 -26
-34 -52 -81z"/>
<path d="M4737 1861 c-36 -13 -134 -360 -163 -571 -17 -127 -12 -203 17 -288
33 -95 85 -151 163 -178 63 -21 111 -14 201 30 101 50 190 145 234 251 31 74
34 111 9 103 -7 -3 -16 -24 -20 -47 -11 -65 -48 -130 -108 -191 -172 -177
-363 -169 -420 17 -40 128 -21 257 80 567 51 157 92 298 87 302 -8 8 -64 11
-80 5z"/>
</g>
</svg>
